<svg aria-hidden="true" style="position: absolute; width: 0; height: 0; overflow: hidden;" version="1.1" xmlns="http://www.w3.org/2000/svg" xmlns:xlink="http://www.w3.org/1999/xlink">
  <defs>
    <symbol id="icon-map-full" viewBox="0 0 32 32">
      <path d="M16 1.333c-6.627 0-12 5.846-12 13.057 0 4.883 3.801 10.052 11.237 15.697l0.763 0.579 1.264-0.963c7.106-5.496 10.736-10.541 10.736-15.313 0-7.211-5.373-13.057-12-13.057zM16 8c2.946 0 5.333 2.388 5.333 5.333s-2.388 5.333-5.333 5.333c-2.946 0-5.333-2.388-5.333-5.333s2.388-5.333 5.333-5.333z"></path>
    </symbol>
    <symbol id="icon-alarm" viewBox="0 0 32 32">
      <path d="M3.057 7.057l4-4c0.521-0.521 1.365-0.521 1.886 0s0.521 1.365 0 1.886l-4 4c-0.521 0.521-1.365 0.521-1.886 0s-0.521-1.365 0-1.886zM24.943 3.057l4 4c0.521 0.521 0.521 1.365 0 1.886s-1.365 0.521-1.886 0l-4-4c-0.521-0.521-0.521-1.365 0-1.886s1.365-0.521 1.886 0zM16 29.333c6.627 0 12-5.373 12-12s-5.373-12-12-12c-6.627 0-12 5.373-12 12s5.373 12 12 12zM16 26.667c-5.155 0-9.333-4.179-9.333-9.333s4.179-9.333 9.333-9.333c5.155 0 9.333 4.179 9.333 9.333s-4.179 9.333-9.333 9.333zM16 10.667c0.736 0 1.333 0.597 1.333 1.333v3.448l2.276 2.276c0.521 0.521 0.521 1.365 0 1.886s-1.365 0.521-1.886 0l-2.667-2.667c-0.25-0.25-0.391-0.589-0.391-0.943v-4c0-0.736 0.597-1.333 1.333-1.333z"></path>
    </symbol>
    <symbol id="icon-apps" viewBox="0 0 32 32">
      <path d="M5.333 24c1.473 0 2.667 1.194 2.667 2.667s-1.194 2.667-2.667 2.667c-1.473 0-2.667-1.194-2.667-2.667s1.194-2.667 2.667-2.667zM16 24c1.473 0 2.667 1.194 2.667 2.667s-1.194 2.667-2.667 2.667c-1.473 0-2.667-1.194-2.667-2.667s1.194-2.667 2.667-2.667zM26.667 24c1.473 0 2.667 1.194 2.667 2.667s-1.194 2.667-2.667 2.667c-1.473 0-2.667-1.194-2.667-2.667s1.194-2.667 2.667-2.667zM5.333 13.333c1.473 0 2.667 1.194 2.667 2.667s-1.194 2.667-2.667 2.667c-1.473 0-2.667-1.194-2.667-2.667s1.194-2.667 2.667-2.667zM16 13.333c1.473 0 2.667 1.194 2.667 2.667s-1.194 2.667-2.667 2.667c-1.473 0-2.667-1.194-2.667-2.667s1.194-2.667 2.667-2.667zM26.667 13.333c1.473 0 2.667 1.194 2.667 2.667s-1.194 2.667-2.667 2.667c-1.473 0-2.667-1.194-2.667-2.667s1.194-2.667 2.667-2.667zM5.333 2.667c1.473 0 2.667 1.194 2.667 2.667s-1.194 2.667-2.667 2.667c-1.473 0-2.667-1.194-2.667-2.667s1.194-2.667 2.667-2.667zM16 2.667c1.473 0 2.667 1.194 2.667 2.667s-1.194 2.667-2.667 2.667c-1.473 0-2.667-1.194-2.667-2.667s1.194-2.667 2.667-2.667zM26.667 2.667c1.473 0 2.667 1.194 2.667 2.667s-1.194 2.667-2.667 2.667c-1.473 0-2.667-1.194-2.667-2.667s1.194-2.667 2.667-2.667z"></path>
    </symbol>
    <symbol id="icon-arrow-right" viewBox="0 0 32 32">
      <path d="M17.613 5.849l0.111-0.126c0.481-0.481 1.237-0.518 1.76-0.111l0.126 0.111 9.389 9.392 0.074 0.090 0.095 0.148 0.071 0.15 0.047 0.14 0.039 0.197 0.009 0.157-0.004 0.1-0.023 0.167-0.039 0.149-0.059 0.148-0.070 0.13-0.098 0.14-0.098 0.109-9.333 9.333c-0.521 0.521-1.365 0.521-1.886 0-0.481-0.481-0.518-1.237-0.111-1.76l0.111-0.126 7.055-7.057h-20.779c-0.736 0-1.333-0.597-1.333-1.333s0.597-1.333 1.333-1.333h20.781l-7.057-7.057c-0.481-0.481-0.518-1.237-0.111-1.76z"></path>
    </symbol>
    <symbol id="icon-attachment" viewBox="0 0 32 32">
      <path d="M22.667 6.667c3.682 0 6.667 2.985 6.667 6.667s-2.985 6.667-6.667 6.667h-10.667c-2.209 0-4-1.791-4-4s1.791-4 4-4h10.667c0.736 0 1.333 0.597 1.333 1.333s-0.597 1.333-1.333 1.333l-10.822 0.009c-0.663 0.077-1.178 0.641-1.178 1.324s0.515 1.247 1.178 1.324l0.155 0.009h10.667c2.209 0 4-1.791 4-4s-1.791-4-4-4h-10.667c-3.682 0-6.667 2.985-6.667 6.667 0 3.585 2.83 6.509 6.377 6.661l0.289 0.006h10.667c0.736 0 1.333 0.597 1.333 1.333s-0.597 1.333-1.333 1.333h-10.667c-5.155 0-9.333-4.179-9.333-9.333s4.179-9.333 9.333-9.333h10.667z"></path>
    </symbol>
    <symbol id="icon-calc" viewBox="0 0 32 32">
      <path fill="none" stroke="currentColor" stroke-linejoin="miter" stroke-linecap="butt" stroke-miterlimit="4" stroke-width="2.6667" d="M6.667 2.667h18.667c0.736 0 1.333 0.597 1.333 1.333v24c0 0.736-0.597 1.333-1.333 1.333h-18.667c-0.736 0-1.333-0.597-1.333-1.333v-24c0-0.736 0.597-1.333 1.333-1.333z"></path>
      <path d="M12 8c0 0.736-0.597 1.333-1.333 1.333s-1.333-0.597-1.333-1.333c0-0.736 0.597-1.333 1.333-1.333s1.333 0.597 1.333 1.333z"></path>
      <path d="M12 13.333c0 0.736-0.597 1.333-1.333 1.333s-1.333-0.597-1.333-1.333c0-0.736 0.597-1.333 1.333-1.333s1.333 0.597 1.333 1.333z"></path>
      <path d="M12 18.667c0 0.736-0.597 1.333-1.333 1.333s-1.333-0.597-1.333-1.333c0-0.736 0.597-1.333 1.333-1.333s1.333 0.597 1.333 1.333z"></path>
      <path d="M17.333 8c0 0.736-0.597 1.333-1.333 1.333s-1.333-0.597-1.333-1.333c0-0.736 0.597-1.333 1.333-1.333s1.333 0.597 1.333 1.333z"></path>
      <path d="M17.333 13.333c0 0.736-0.597 1.333-1.333 1.333s-1.333-0.597-1.333-1.333c0-0.736 0.597-1.333 1.333-1.333s1.333 0.597 1.333 1.333z"></path>
      <path d="M17.333 18.667c0 0.736-0.597 1.333-1.333 1.333s-1.333-0.597-1.333-1.333c0-0.736 0.597-1.333 1.333-1.333s1.333 0.597 1.333 1.333z"></path>
      <path d="M22.667 8c0 0.736-0.597 1.333-1.333 1.333s-1.333-0.597-1.333-1.333c0-0.736 0.597-1.333 1.333-1.333s1.333 0.597 1.333 1.333z"></path>
      <path d="M22.667 13.333c0 0.736-0.597 1.333-1.333 1.333s-1.333-0.597-1.333-1.333c0-0.736 0.597-1.333 1.333-1.333s1.333 0.597 1.333 1.333z"></path>
      <path d="M22.667 18.667c0 0.736-0.597 1.333-1.333 1.333s-1.333-0.597-1.333-1.333c0-0.736 0.597-1.333 1.333-1.333s1.333 0.597 1.333 1.333z"></path>
      <path d="M10.667 22.667h5.333c0.736 0 1.333 0.597 1.333 1.333s-0.597 1.333-1.333 1.333h-5.333c-0.736 0-1.333-0.597-1.333-1.333s0.597-1.333 1.333-1.333z"></path>
    </symbol>
    <symbol id="icon-car" viewBox="0 0 32 32">
      <path d="M20.704 2.667c2.020 0 3.867 1.141 4.77 2.948l3.015 6.029c0.555 1.111 0.845 2.336 0.845 3.578v11.445c0 1.473-1.194 2.667-2.667 2.667s-2.667-1.194-2.667-2.667v-2.667h-16v2.667c0 1.473-1.194 2.667-2.667 2.667s-2.667-1.194-2.667-2.667v-11.445c0-1.242 0.289-2.467 0.845-3.578l3.015-6.029c0.903-1.807 2.75-2.948 4.77-2.948h9.408zM25.333 17.333h-2.667c-0.736 0-1.333 0.597-1.333 1.333 0 0.684 0.515 1.247 1.178 1.324l0.155 0.009h2.667c0.736 0 1.333-0.597 1.333-1.333 0-0.684-0.515-1.247-1.178-1.324l-0.155-0.009zM9.333 17.333h-2.667c-0.736 0-1.333 0.597-1.333 1.333 0 0.684 0.515 1.247 1.178 1.324l0.155 0.009h2.667c0.736 0 1.333-0.597 1.333-1.333 0-0.684-0.515-1.247-1.178-1.324l-0.155-0.009zM21.019 5.333h-10.037c-0.938 0-1.801 0.492-2.281 1.286l-0.104 0.188-3.263 6.526h21.333l-3.263-6.526c-0.452-0.903-1.375-1.474-2.385-1.474z"></path>
    </symbol>
    <symbol id="icon-chart-bar" viewBox="0 0 32 32">
      <path d="M25.333 2.667c2.209 0 4 1.791 4 4v18.667c0 2.209-1.791 4-4 4h-18.667c-2.209 0-4-1.791-4-4v-18.667c0-2.209 1.791-4 4-4h18.667zM25.333 5.333h-18.667c-0.736 0-1.333 0.597-1.333 1.333v18.667c0 0.736 0.597 1.333 1.333 1.333h18.667c0.736 0 1.333-0.597 1.333-1.333v-18.667c0-0.736-0.597-1.333-1.333-1.333zM10.667 18.667c0.736 0 1.333 0.597 1.333 1.333v2.667c0 0.736-0.597 1.333-1.333 1.333s-1.333-0.597-1.333-1.333v-2.667c0-0.736 0.597-1.333 1.333-1.333zM16 8c0.736 0 1.333 0.597 1.333 1.333v13.333c0 0.736-0.597 1.333-1.333 1.333s-1.333-0.597-1.333-1.333v-13.333c0-0.736 0.597-1.333 1.333-1.333zM21.333 13.333c0.736 0 1.333 0.597 1.333 1.333v8c0 0.736-0.597 1.333-1.333 1.333s-1.333-0.597-1.333-1.333v-8c0-0.736 0.597-1.333 1.333-1.333z"></path>
    </symbol>
    <symbol id="icon-chart-bar-full" viewBox="0 0 32 32">
      <path d="M25.333 2.667h-18.667c-2.209 0-4 1.791-4 4v18.667c0 2.209 1.791 4 4 4h18.667c2.209 0 4-1.791 4-4v-18.667c0-2.209-1.791-4-4-4zM10.667 18.667c0.736 0 1.333 0.597 1.333 1.333v2.667c0 0.736-0.597 1.333-1.333 1.333s-1.333-0.597-1.333-1.333v-2.667c0-0.736 0.597-1.333 1.333-1.333zM16 8c0.736 0 1.333 0.597 1.333 1.333v13.333c0 0.736-0.597 1.333-1.333 1.333s-1.333-0.597-1.333-1.333v-13.333c0-0.736 0.597-1.333 1.333-1.333zM21.333 13.333c0.736 0 1.333 0.597 1.333 1.333v8c0 0.736-0.597 1.333-1.333 1.333s-1.333-0.597-1.333-1.333v-8c0-0.736 0.597-1.333 1.333-1.333z"></path>
    </symbol>
    <symbol id="icon-chevron-down" viewBox="0 0 32 32">
      <path d="M21.724 12.391c0.521-0.521 1.365-0.521 1.886 0s0.521 1.365 0 1.886l-6.667 6.667c-0.521 0.521-1.365 0.521-1.886 0l-6.667-6.667c-0.521-0.521-0.521-1.365 0-1.886s1.365-0.521 1.886 0l5.724 5.724 5.724-5.724z"></path>
    </symbol>
    <symbol id="icon-chevron-left" viewBox="0 0 32 32">
      <path d="M21.333 28c-0.341 0-0.683-0.131-0.943-0.391l-10.667-10.667c-0.521-0.521-0.521-1.364 0-1.885l10.667-10.667c0.521-0.521 1.364-0.521 1.885 0s0.521 1.364 0 1.885l-9.724 9.724 9.724 9.724c0.521 0.521 0.521 1.364 0 1.885-0.26 0.26-0.601 0.391-0.943 0.391z"></path>
    </symbol>
    <symbol id="icon-chevron-right" viewBox="0 0 32 32">
      <path d="M10.667 28c0.341 0 0.683-0.131 0.943-0.391l10.667-10.667c0.521-0.521 0.521-1.364 0-1.885l-10.667-10.667c-0.521-0.521-1.364-0.521-1.885 0s-0.521 1.364 0 1.885l9.724 9.724-9.724 9.724c-0.521 0.521-0.521 1.364 0 1.885 0.26 0.26 0.601 0.391 0.943 0.391z"></path>
    </symbol>
    <symbol id="icon-chevron-up" viewBox="0 0 32 32">
      <path d="M21.724 19.609c0.521 0.521 1.365 0.521 1.886 0s0.521-1.365 0-1.886l-6.667-6.667c-0.521-0.521-1.365-0.521-1.886 0l-6.667 6.667c-0.521 0.521-0.521 1.365 0 1.886s1.365 0.521 1.886 0l5.724-5.724 5.724 5.724z"></path>
    </symbol>
    <symbol id="icon-close" viewBox="0 0 32 32">
      <path d="M17.886 16l7.057-7.057c0.521-0.521 0.521-1.364 0-1.885s-1.364-0.521-1.885 0l-7.057 7.057-7.057-7.057c-0.521-0.521-1.364-0.521-1.885 0s-0.521 1.364 0 1.885l7.057 7.057-7.057 7.057c-0.521 0.521-0.521 1.364 0 1.885 0.26 0.26 0.601 0.391 0.943 0.391s0.683-0.131 0.943-0.391l7.057-7.057 7.057 7.057c0.26 0.26 0.601 0.391 0.943 0.391s0.683-0.131 0.943-0.391c0.521-0.521 0.521-1.364 0-1.885l-7.057-7.057z"></path>
    </symbol>
    <symbol id="icon-comment" viewBox="0 0 32 32">
      <path d="M25.333 2.667c2.127 0 3.871 1.669 3.993 3.765l0.007 0.235v13.333c0 2.127-1.669 3.871-3.765 3.993l-0.235 0.007h-4.667l-3.6 4.8c-0.252 0.336-0.647 0.533-1.067 0.533-0.367 0-0.716-0.151-0.966-0.414l-0.101-0.119-3.6-4.8h-4.667c-2.127 0-3.871-1.669-3.993-3.765l-0.007-0.235v-13.333c0-2.127 1.669-3.871 3.765-3.993l0.235-0.007h18.667zM25.333 5.333h-18.667c-0.682 0-1.247 0.516-1.324 1.178l-0.009 0.155v13.333c0 0.682 0.516 1.247 1.178 1.324l0.155 0.009h5.333c0.367 0 0.716 0.151 0.966 0.414l0.101 0.119 2.933 3.911 2.933-3.911c0.221-0.294 0.55-0.482 0.911-0.524l0.156-0.009h5.333c0.682 0 1.247-0.516 1.324-1.178l0.009-0.155v-13.333c0-0.682-0.516-1.247-1.178-1.324l-0.155-0.009zM22.667 14.667c0.736 0 1.333 0.597 1.333 1.333 0 0.683-0.515 1.247-1.178 1.324l-0.155 0.009h-13.333c-0.736 0-1.333-0.597-1.333-1.333 0-0.683 0.515-1.247 1.178-1.324l0.155-0.009h13.333zM22.667 9.333c0.736 0 1.333 0.597 1.333 1.333 0 0.683-0.515 1.247-1.178 1.324l-0.155 0.009h-13.333c-0.736 0-1.333-0.597-1.333-1.333 0-0.683 0.515-1.247 1.178-1.324l0.155-0.009h13.333z"></path>
    </symbol>
    <symbol id="icon-delete" viewBox="0 0 32 32">
      <path d="M22.667 10.667c0.736 0 1.333 0.597 1.333 1.333v13.333c0 2.209-1.791 4-4 4h-8c-2.209 0-4-1.791-4-4v-13.333c0-0.736 0.597-1.333 1.333-1.333h13.333zM21.333 13.333h-10.667v12c0 0.736 0.597 1.333 1.333 1.333h8c0.736 0 1.333-0.597 1.333-1.333v-12zM12 4c0-0.736 0.597-1.333 1.333-1.333h5.333c0.736 0 1.333 0.597 1.333 1.333v1.333h5.333c0.736 0 1.333 0.597 1.333 1.333s-0.597 1.333-1.333 1.333h-18.667c-0.736 0-1.333-0.597-1.333-1.333s0.597-1.333 1.333-1.333h5.333v-1.333z"></path>
    </symbol>
    <symbol id="icon-download" viewBox="0 0 32 32">
      <path d="M28 21.333c0.684 0 1.247 0.515 1.324 1.178l0.009 0.155v2.667c0 2.13-1.665 3.872-3.765 3.993l-0.235 0.007h-18.667c-2.13 0-3.872-1.665-3.993-3.765l-0.007-0.235v-2.667c0-0.736 0.597-1.333 1.333-1.333 0.684 0 1.247 0.515 1.324 1.178l0.009 0.155v2.667c0 0.684 0.515 1.247 1.178 1.324l0.155 0.009h18.667c0.684 0 1.247-0.515 1.324-1.178l0.009-0.155v-2.667c0-0.736 0.597-1.333 1.333-1.333zM16 2.667c0.736 0 1.333 0.597 1.333 1.333v12.78l1.724-1.723c0.481-0.481 1.237-0.518 1.76-0.111l0.126 0.111c0.481 0.481 0.518 1.237 0.111 1.76l-0.111 0.126-4.059 4.055-0.090 0.074-0.148 0.095-0.15 0.071-0.14 0.047-0.198 0.039-0.157 0.009-0.1-0.004-0.167-0.023-0.149-0.039-0.148-0.059-0.13-0.070-0.128-0.089c-0.042-0.033-0.083-0.069-0.121-0.107l-4-4c-0.521-0.521-0.521-1.365 0-1.886 0.481-0.481 1.237-0.518 1.76-0.111l0.126 0.111 1.724 1.723v-12.78c0-0.736 0.597-1.333 1.333-1.333z"></path>
    </symbol>
    <symbol id="icon-edit" viewBox="0 0 32 32">
      <path d="M28 26.667c0.736 0 1.333 0.597 1.333 1.333s-0.597 1.333-1.333 1.333h-24c-0.736 0-1.333-0.597-1.333-1.333s0.597-1.333 1.333-1.333h24zM8.391 17.724l14.667-14.667c0.481-0.481 1.237-0.518 1.76-0.111l0.126 0.111 4 4c0.481 0.481 0.518 1.237 0.111 1.76l-0.111 0.126-14.667 14.667c-0.208 0.208-0.479 0.341-0.768 0.379l-0.175 0.012h-4c-0.684 0-1.247-0.515-1.324-1.178l-0.009-0.155v-4c0-0.295 0.098-0.579 0.275-0.811l0.116-0.132zM24 5.886l-13.333 13.333v2.114h2.114l13.333-13.333-2.114-2.114z"></path>
    </symbol>
    <symbol id="icon-email" viewBox="0 0 32 32">
      <path d="M25.333 5.333c2.209 0 4 1.791 4 4v13.333c0 2.209-1.791 4-4 4h-18.667c-2.209 0-4-1.791-4-4v-13.333c0-2.209 1.791-4 4-4h18.667zM26.667 9.771l-9.789 8.566c-0.461 0.403-1.13 0.437-1.625 0.101l-0.131-0.101-9.789-8.565v12.895c0 0.736 0.597 1.333 1.333 1.333h18.667c0.736 0 1.333-0.597 1.333-1.333v-12.896zM24.64 8h-17.283l8.643 7.562 8.64-7.562z"></path>
    </symbol>
    <symbol id="icon-file" viewBox="0 0 32 32">
      <path d="M18.667 2.667c0.354 0 0.693 0.14 0.943 0.391l6.667 6.667c0.25 0.25 0.391 0.589 0.391 0.943v14.667c0 2.209-1.791 4-4 4h-13.333c-2.209 0-4-1.791-4-4v-18.667c0-2.209 1.791-4 4-4h9.333zM15.999 5.333h-6.665c-0.736 0-1.333 0.597-1.333 1.333v18.667c0 0.736 0.597 1.333 1.333 1.333h13.333c0.736 0 1.333-0.597 1.333-1.333v-12h-6.667c-0.684 0-1.247-0.515-1.324-1.178l-0.009-0.155-0.001-6.667zM23.448 10.667l-4.783-4.781 0.001 4.781h4.781z"></path>
    </symbol>
    <symbol id="icon-filter" viewBox="0 0 32 32">
      <path d="M12 19.055l-9.125-14.339c-0.565-0.888 0.073-2.049 1.125-2.049h24c1.052 0 1.69 1.162 1.125 2.049l-9.125 14.339v6.278c0 0.505-0.285 0.967-0.737 1.193l-5.333 2.667c-0.887 0.443-1.93-0.201-1.93-1.193v-8.945zM6.429 5.333l8.029 12.617c0.136 0.214 0.209 0.462 0.209 0.716v7.176l2.667-1.333v-5.843c0-0.254 0.072-0.502 0.208-0.716l8.029-12.617h-19.142z"></path>
    </symbol>
    <symbol id="icon-home" viewBox="0 0 32 32">
      <path d="M9.333 29.333c-2.209 0-4-1.791-4-4v-8h-1.333c-1.188 0-1.783-1.436-0.943-2.276l12-12c0.521-0.521 1.365-0.521 1.886 0l12 12c0.84 0.84 0.245 2.276-0.943 2.276h-1.333v8c0 2.209-1.791 4-4 4h-13.333zM16 5.886l-8.865 8.865c0.506 0.189 0.865 0.677 0.865 1.249v9.333c0 0.736 0.597 1.333 1.333 1.333l2.667-0.001v-5.332c0-1.473 1.194-2.667 2.667-2.667h2.667c1.473 0 2.667 1.194 2.667 2.667v5.332l2.667 0.001c0.736 0 1.333-0.597 1.333-1.333v-9.333c0-0.572 0.36-1.059 0.865-1.249l-8.865-8.865zM17.333 21.333h-2.667v5.332h2.667v-5.332z"></path>
    </symbol>
    <symbol id="icon-horizontal-align-left" viewBox="0 0 32 32">
      <path d="M5.333 28c0 0.736-0.597 1.333-1.333 1.333s-1.333-0.597-1.333-1.333v-24c0-0.736 0.597-1.333 1.333-1.333s1.333 0.597 1.333 1.333v24zM8 16l0.005-0.109 0.022-0.158 0.039-0.149 0.059-0.148 0.070-0.13 0.067-0.099 0.129-0.149 5.333-5.333c0.521-0.521 1.365-0.521 1.886 0 0.481 0.481 0.518 1.237 0.111 1.76l-0.111 0.126-3.056 3.057h15.447c0.736 0 1.333 0.597 1.333 1.333s-0.597 1.333-1.333 1.333h-15.447l3.056 3.057c0.481 0.481 0.518 1.237 0.111 1.76l-0.111 0.126c-0.481 0.481-1.237 0.518-1.76 0.111l-0.126-0.111-5.389-5.392-0.074-0.090-0.096-0.148-0.041-0.081-0.045-0.109-0.032-0.101-0.039-0.198-0.009-0.157z"></path>
    </symbol>
    <symbol id="icon-import-export" viewBox="0 0 32 32">
      <path d="M25.054 24.817l-0.111 0.126-4 4c-0.036 0.036-0.074 0.070-0.114 0.102l-0.162 0.11-0.098 0.051-0.116 0.048-0.142 0.042-0.156 0.028-0.112 0.008-0.123-0.002-0.154-0.018-0.183-0.046-0.148-0.059-0.13-0.070-0.128-0.089-0.12-0.107-4-4c-0.521-0.521-0.521-1.365 0-1.886 0.481-0.481 1.237-0.518 1.76-0.111l0.126 0.111 1.724 1.723 0-12.78c0-0.684 0.515-1.247 1.178-1.324l0.155-0.009c0.736 0 1.333 0.597 1.333 1.333l-0 12.78 1.724-1.723c0.481-0.481 1.237-0.518 1.76-0.111l0.126 0.111c0.441 0.441 0.508 1.113 0.203 1.625l-0.092 0.135zM7.057 7.057l4-4 0.149-0.129 0.148-0.095 0.151-0.072 0.14-0.047 0.121-0.027 0.154-0.018h0.158l0.154 0.018 0.184 0.046 0.072 0.026 0.116 0.052 0.089 0.050 0.108 0.073 0.085 0.070 0.056 0.052 4 4 0.111 0.126c0.373 0.479 0.373 1.155 0 1.634l-0.111 0.126-0.126 0.111c-0.479 0.373-1.155 0.373-1.634 0l-0.126-0.111-1.724-1.723 0 12.78c0 0.684-0.515 1.247-1.178 1.324l-0.155 0.009-0.156-0.009c-0.612-0.071-1.098-0.557-1.169-1.169l-0.009-0.155-0-12.78-1.724 1.723-0.126 0.111c-0.523 0.407-1.279 0.37-1.76-0.111s-0.518-1.237-0.111-1.76l0.111-0.126z"></path>
    </symbol>
    <symbol id="icon-info" viewBox="0 0 32 32">
      <path d="M16 2.667c7.364 0 13.333 5.97 13.333 13.333s-5.97 13.333-13.333 13.333c-7.364 0-13.333-5.97-13.333-13.333s5.97-13.333 13.333-13.333zM16 5.333c-5.891 0-10.667 4.776-10.667 10.667s4.776 10.667 10.667 10.667c5.891 0 10.667-4.776 10.667-10.667s-4.776-10.667-10.667-10.667zM16 13.333c0.736 0 1.333 0.597 1.333 1.333v8c0 0.736-0.597 1.333-1.333 1.333s-1.333-0.597-1.333-1.333v-8c0-0.736 0.597-1.333 1.333-1.333zM16 8c0.736 0 1.333 0.597 1.333 1.333s-0.597 1.333-1.333 1.333c-0.736 0-1.333-0.597-1.333-1.333s0.597-1.333 1.333-1.333z"></path>
    </symbol>
    <symbol id="icon-map" viewBox="0 0 32 32">
      <path d="M16 1.333c6.627 0 12 5.846 12 13.057 0 4.772-3.63 9.817-10.736 15.313l-1.264 0.963-0.763-0.579c-7.436-5.645-11.237-10.815-11.237-15.697 0-7.211 5.373-13.057 12-13.057zM16 4c-5.155 0-9.333 4.503-9.333 10.058 0 3.49 3.062 7.749 9.333 12.608 6.271-4.86 9.333-9.118 9.333-12.608 0-5.555-4.179-10.058-9.333-10.058zM16 8c2.945 0 5.333 2.388 5.333 5.333s-2.388 5.333-5.333 5.333c-2.946 0-5.333-2.388-5.333-5.333s2.388-5.333 5.333-5.333zM16 10.667c-1.473 0-2.667 1.194-2.667 2.667s1.194 2.667 2.667 2.667 2.667-1.194 2.667-2.667c0-1.473-1.194-2.667-2.667-2.667z"></path>
    </symbol>
    <symbol id="icon-menu" viewBox="0 0 32 32">
      <path d="M28 22.667c0.736 0 1.333 0.597 1.333 1.333s-0.597 1.333-1.333 1.333h-24c-0.736 0-1.333-0.597-1.333-1.333s0.597-1.333 1.333-1.333h24zM28 14.667c0.736 0 1.333 0.597 1.333 1.333s-0.597 1.333-1.333 1.333h-24c-0.736 0-1.333-0.597-1.333-1.333s0.597-1.333 1.333-1.333h24zM28 6.667c0.736 0 1.333 0.597 1.333 1.333s-0.597 1.333-1.333 1.333h-24c-0.736 0-1.333-0.597-1.333-1.333s0.597-1.333 1.333-1.333h24z"></path>
    </symbol>
    <symbol id="icon-mic" viewBox="0 0 32 32">
      <path d="M25.333 14.667c0.736 0 1.333 0.597 1.333 1.333 0 5.439-4.071 9.927-9.332 10.584l-0.001 1.416c0 0.736-0.597 1.333-1.333 1.333s-1.333-0.597-1.333-1.333v-1.416c-5.262-0.656-9.333-5.145-9.333-10.584 0-0.736 0.597-1.333 1.333-1.333s1.333 0.597 1.333 1.333c0 4.418 3.582 8 8 8s8-3.582 8-8c0-0.736 0.597-1.333 1.333-1.333zM16 2.667c2.945 0 5.333 2.388 5.333 5.333v8c0 2.945-2.388 5.333-5.333 5.333s-5.333-2.388-5.333-5.333v-8c0-2.946 2.388-5.333 5.333-5.333zM16 5.333c-1.473 0-2.667 1.194-2.667 2.667v8c0 1.473 1.194 2.667 2.667 2.667s2.667-1.194 2.667-2.667v-8c0-1.473-1.194-2.667-2.667-2.667z"></path>
    </symbol>
    <symbol id="icon-minus" viewBox="0 0 32 32">
      <path d="M6.667 14.667h18.667c0.736 0 1.333 0.597 1.333 1.333s-0.597 1.333-1.333 1.333h-18.667c-0.736 0-1.333-0.597-1.333-1.333s0.597-1.333 1.333-1.333z"></path>
    </symbol>
    <symbol id="icon-phone" viewBox="0 0 32 32">
      <path d="M12.74 13.109c0.371-0.247 0.594-0.664 0.594-1.109v-5.333c0-2.209-1.791-4-4-4h-5.333c-0.736 0-1.333 0.597-1.333 1.333 0 13.255 12.079 25.333 25.333 25.333 0.736 0 1.333-0.597 1.333-1.333v-5.333c0-2.209-1.791-4-4-4h-5.333c-0.446 0-0.862 0.223-1.109 0.594l-2.54 3.811c-2.767-1.789-5.191-4.152-7.056-6.872l-0.365-0.549 3.811-2.54zM20.714 21.333h4.62c0.736 0 1.333 0.597 1.333 1.333v3.954c-2.583-0.179-5.104-0.869-7.455-1.965l-0.539-0.26 2.041-3.062zM5.38 5.333h3.954c0.736 0 1.333 0.597 1.333 1.333v4.62l-3.062 2.041c-1.246-2.503-2.032-5.213-2.225-7.995z"></path>
    </symbol>
    <symbol id="icon-plus" viewBox="0 0 32 32">
      <path d="M16 5.333c0.736 0 1.333 0.597 1.333 1.333v8h8c0.736 0 1.333 0.597 1.333 1.333s-0.597 1.333-1.333 1.333h-8v8c0 0.736-0.597 1.333-1.333 1.333s-1.333-0.597-1.333-1.333v-8h-8c-0.736 0-1.333-0.597-1.333-1.333s0.597-1.333 1.333-1.333h8v-8c0-0.736 0.597-1.333 1.333-1.333z"></path>
    </symbol>
    <symbol id="icon-print" viewBox="0 0 32 32">
      <path fill="none" stroke="currentColor" stroke-linejoin="miter" stroke-linecap="butt" stroke-miterlimit="4" stroke-width="2.6667" d="M6.667 12h18.667c1.473 0 2.667 1.194 2.667 2.667v8c0 1.473-1.194 2.667-2.667 2.667h-18.667c-1.473 0-2.667-1.194-2.667-2.667v-8c0-1.473 1.194-2.667 2.667-2.667z"></path>
      <path d="M9.333 21.333h13.333c0.736 0 1.333 0.597 1.333 1.333v5.333c0 0.736-0.597 1.333-1.333 1.333h-13.333c-0.736 0-1.333-0.597-1.333-1.333v-5.333c0-0.736 0.597-1.333 1.333-1.333z"></path>
      <path d="M9.333 16c0.736 0 1.333 0.597 1.333 1.333s-0.597 1.333-1.333 1.333c-0.736 0-1.333-0.597-1.333-1.333s0.597-1.333 1.333-1.333z"></path>
      <path d="M14.667 16c0.736 0 1.333 0.597 1.333 1.333s-0.597 1.333-1.333 1.333c-0.736 0-1.333-0.597-1.333-1.333s0.597-1.333 1.333-1.333z"></path>
      <path d="M9.333 2.667h13.333c0.736 0 1.333 0.597 1.333 1.333v2.667c0 0.736-0.597 1.333-1.333 1.333h-13.333c-0.736 0-1.333-0.597-1.333-1.333v-2.667c0-0.736 0.597-1.333 1.333-1.333z"></path>
    </symbol>
    <symbol id="icon-publish" viewBox="0 0 32 32">
      <path d="M14.933 8.533c0.498-0.664 1.46-0.708 2.020-0.133l0.113 0.133 8 10.667c0.629 0.839 0.086 2.020-0.92 2.126l-0.147 0.008h-4v6.667c0 0.631-0.439 1.16-1.028 1.298l-0.15 0.026-0.155 0.009h-5.333c-0.684 0-1.247-0.515-1.324-1.178l-0.009-0.155v-6.667h-4c-0.996 0-1.605-1.031-1.218-1.879l0.069-0.132 0.082-0.122 8-10.667zM16 11.556l-5.333 7.111h2.667c0.631 0 1.16 0.439 1.298 1.028l0.026 0.15 0.009 0.155v6.667h2.667v-6.667c0-0.631 0.439-1.16 1.028-1.298l0.15-0.026 0.155-0.009h2.667l-5.333-7.111zM28 2.667c0.736 0 1.333 0.597 1.333 1.333s-0.597 1.333-1.333 1.333h-24c-0.736 0-1.333-0.597-1.333-1.333s0.597-1.333 1.333-1.333h24z"></path>
    </symbol>
    <symbol id="icon-refresh" viewBox="0 0 32 32">
      <path d="M11.057 7.057l2.667-2.667c0.521-0.521 1.365-0.521 1.886 0 0.481 0.481 0.518 1.237 0.111 1.76l-0.111 0.126-0.424 0.421c0.27-0.020 0.541-0.031 0.814-0.031 5.891 0 10.667 4.776 10.667 10.667s-4.776 10.667-10.667 10.667c-5.891 0-10.667-4.776-10.667-10.667 0-0.736 0.597-1.333 1.333-1.333s1.333 0.597 1.333 1.333c0 4.418 3.582 8 8 8s8-3.582 8-8c0-4.418-3.582-8-8-8-0.249 0-0.497 0.011-0.743 0.034l0.352 0.357c0.521 0.521 0.521 1.365 0 1.886-0.481 0.481-1.237 0.518-1.76 0.111l-0.126-0.111-2.667-2.667c-0.481-0.481-0.518-1.237-0.111-1.76l0.111-0.126z"></path>
    </symbol>
    <symbol id="icon-rotate" viewBox="0 0 32 32">
      <path d="M6.644 14.667c0.684-0.011 1.256 0.494 1.344 1.155l0.012 0.155 0.005 0.298c0.145 4.3 3.68 7.724 7.995 7.724 0.249 0 0.497-0.011 0.742-0.034l-0.352-0.357c-0.521-0.521-0.521-1.365 0-1.886s1.365-0.521 1.886 0l2.667 2.667c0.521 0.521 0.521 1.365 0 1.886l-2.667 2.667c-0.521 0.521-1.365 0.521-1.886 0s-0.521-1.365 0-1.886l0.424-0.421c-0.27 0.020-0.542 0.031-0.815 0.031-5.642 0-10.282-4.387-10.644-9.986l-0.017-0.337-0.005-0.321c-0.012-0.736 0.574-1.343 1.311-1.356zM15.609 3.057c0.481 0.481 0.518 1.237 0.111 1.76l-0.111 0.126-0.424 0.421c0.27-0.020 0.541-0.031 0.814-0.031 5.891 0 10.667 4.776 10.667 10.667 0 0.736-0.597 1.333-1.333 1.333s-1.333-0.597-1.333-1.333c0-4.418-3.582-8-8-8-0.249 0-0.497 0.011-0.743 0.034l0.352 0.357c0.521 0.521 0.521 1.365 0 1.886-0.481 0.481-1.237 0.518-1.76 0.111l-0.126-0.111-2.667-2.667c-0.481-0.481-0.518-1.237-0.111-1.76l0.111-0.126 2.667-2.667c0.521-0.521 1.365-0.521 1.886 0z"></path>
    </symbol>
    <symbol id="icon-search" viewBox="0 0 32 32">
      <path d="M14.667 2.667c6.627 0 12 5.373 12 12 0 2.833-0.982 5.437-2.624 7.49l4.9 4.901c0.521 0.521 0.521 1.365 0 1.886-0.481 0.481-1.237 0.518-1.76 0.111l-0.126-0.111-4.901-4.9c-2.053 1.642-4.657 2.624-7.49 2.624-6.627 0-12-5.373-12-12s5.373-12 12-12zM14.667 5.333c-5.155 0-9.333 4.179-9.333 9.333s4.179 9.333 9.333 9.333c5.155 0 9.333-4.179 9.333-9.333s-4.179-9.333-9.333-9.333z"></path>
    </symbol>
    <symbol id="icon-shopping-cart" viewBox="0 0 32 32">
      <path d="M11.333 25.333c1.105 0 2 0.895 2 2s-0.895 2-2 2c-1.105 0-2-0.895-2-2s0.895-2 2-2zM23.333 25.333c1.105 0 2 0.895 2 2s-0.895 2-2 2c-1.105 0-2-0.895-2-2s0.895-2 2-2zM4 2.667h2.667c0.607 0 1.131 0.409 1.287 0.984l0.031 0.147 0.647 4.203h19.369c0.8 0 1.407 0.694 1.327 1.467l-0.025 0.155-2.203 9.912c-0.389 1.751-1.891 3.018-3.662 3.125l-0.243 0.007h-11.573c-1.895 0-3.518-1.327-3.911-3.16l-0.043-0.232-2.145-13.942h-1.523c-0.736 0-1.333-0.597-1.333-1.333 0-0.684 0.515-1.247 1.178-1.324l0.155-0.009zM26.338 10.667h-17.297l1.262 8.203c0.092 0.6 0.576 1.056 1.168 1.122l0.15 0.008h11.573c0.573 0 1.075-0.365 1.259-0.895l0.042-0.149 1.842-8.289z"></path>
    </symbol>
    <symbol id="icon-shuffle" viewBox="0 0 32 32">
      <path d="M24.28 5.849l0.111-0.126c0.481-0.481 1.237-0.518 1.76-0.111l0.126 0.111 2.667 2.667 0.055 0.059 0.065 0.079 0.104 0.16 0.071 0.149 0.042 0.121 0.033 0.143 0.018 0.154 0 0.155-0.017 0.152-0.016 0.081-0.044 0.147-0.045 0.109-0.070 0.13-0.089 0.128-0.075 0.087-2.699 2.7c-0.521 0.521-1.365 0.521-1.886 0-0.481-0.481-0.518-1.237-0.111-1.76l0.111-0.126 0.388-0.391h-3.445c-4.331 0-6.514 1.326-9.331 5.331 2.816 4.009 5 5.335 9.331 5.335h3.447l-0.389-0.391c-0.481-0.481-0.518-1.237-0.111-1.76l0.111-0.126c0.481-0.481 1.237-0.518 1.76-0.111l0.126 0.111 2.667 2.667 0.055 0.059 0.074 0.090 0.095 0.148 0.066 0.137 0.053 0.154 0.039 0.197 0.009 0.157-0.003 0.093-0.016 0.133-0.047 0.191-0.056 0.143-0.072 0.135-0.098 0.14-0.098 0.109-2.667 2.667c-0.521 0.521-1.365 0.521-1.886 0-0.481-0.481-0.518-1.237-0.111-1.76l0.111-0.126 0.388-0.391h-3.445c-5.061 0-7.847-1.56-10.898-5.621l-0.678 1.063c-0.184 0.284-0.351 0.539-0.51 0.776l-0.157 0.232-0.306 0.44-0.309 0.428c-1.27 1.729-2.71 2.683-4.476 2.683-0.736 0-1.333-0.597-1.333-1.333 0-0.684 0.515-1.247 1.178-1.324l0.322-0.016c0.718-0.065 1.403-0.557 2.16-1.587 0.322-0.438 0.617-0.866 0.977-1.416l0.224-0.345 1.26-1.977-1.26-1.977c-0.467-0.724-0.816-1.236-1.202-1.761-0.757-1.031-1.442-1.522-2.16-1.587l-0.166-0.007c-0.736 0-1.333-0.597-1.333-1.333s0.597-1.333 1.333-1.333c1.765 0 3.206 0.954 4.476 2.683l0.309 0.428 0.306 0.44 0.488 0.733c0.174 0.266 0.361 0.557 0.57 0.887l0.287 0.451c2.959-3.938 5.668-5.525 10.444-5.617l0.454-0.004h3.447l-0.389-0.391c-0.481-0.481-0.518-1.237-0.111-1.76v0z"></path>
    </symbol>
    <symbol id="icon-star" viewBox="0 0 32 32">
      <path d="M15.258 25.971l-5.771 3.171c-0.78 0.428-1.744 0.115-2.153-0.699-0.163-0.324-0.22-0.696-0.16-1.057l1.102-6.715c0.089-0.541-0.083-1.092-0.459-1.475l-4.669-4.756c-0.631-0.642-0.644-1.697-0.029-2.356 0.245-0.262 0.566-0.433 0.913-0.486l6.452-0.98c0.519-0.079 0.968-0.42 1.201-0.912l2.885-6.11c0.39-0.825 1.346-1.164 2.136-0.757 0.315 0.162 0.569 0.428 0.724 0.757l2.885 6.11c0.232 0.492 0.681 0.833 1.201 0.912l6.452 0.98c0.871 0.132 1.475 0.978 1.349 1.889-0.050 0.363-0.214 0.698-0.465 0.954l-4.669 4.756c-0.376 0.383-0.547 0.934-0.459 1.475l1.102 6.715c0.149 0.907-0.434 1.769-1.302 1.924-0.346 0.062-0.701 0.003-1.012-0.167l-5.771-3.171c-0.465-0.255-1.020-0.255-1.484 0z"></path>
    </symbol>
    <symbol id="icon-star-empty" viewBox="0 0 32 32">
      <path d="M15.258 25.971l-5.771 3.171c-0.78 0.428-1.744 0.115-2.153-0.699-0.163-0.324-0.22-0.696-0.16-1.057l1.102-6.715c0.089-0.541-0.083-1.092-0.459-1.475l-4.669-4.756c-0.631-0.642-0.644-1.697-0.029-2.356 0.245-0.262 0.566-0.433 0.913-0.486l6.452-0.98c0.519-0.079 0.968-0.42 1.201-0.912l2.885-6.11c0.39-0.825 1.346-1.164 2.136-0.757 0.315 0.162 0.569 0.428 0.724 0.757l2.885 6.11c0.232 0.492 0.681 0.833 1.201 0.912l6.452 0.98c0.871 0.132 1.475 0.978 1.349 1.889-0.050 0.363-0.214 0.698-0.465 0.954l-4.669 4.756c-0.376 0.383-0.547 0.934-0.459 1.475l1.102 6.715c0.149 0.907-0.434 1.769-1.302 1.924-0.346 0.062-0.701 0.003-1.012-0.167l-5.771-3.171c-0.465-0.255-1.020-0.255-1.484 0zM13.974 23.634c1.264-0.695 2.788-0.695 4.052 0l3.828 2.103-0.761-4.635c-0.225-1.374 0.212-2.782 1.187-3.775l3.329-3.391-4.493-0.682c-1.407-0.214-2.604-1.123-3.212-2.409l-1.904-4.032-1.904 4.032c-0.608 1.286-1.805 2.196-3.212 2.409l-4.493 0.682 3.329 3.391c0.975 0.993 1.413 2.401 1.187 3.775l-0.761 4.635 3.828-2.103z"></path>
    </symbol>
    <symbol id="icon-success" viewBox="0 0 32 32">
      <path d="M16 2.667c7.364 0 13.333 5.97 13.333 13.333s-5.97 13.333-13.333 13.333c-7.364 0-13.333-5.97-13.333-13.333s5.97-13.333 13.333-13.333zM16 5.333c-5.891 0-10.667 4.776-10.667 10.667s4.776 10.667 10.667 10.667c5.891 0 10.667-4.776 10.667-10.667s-4.776-10.667-10.667-10.667zM20.391 11.057l-7.057 7.057-1.724-1.724c-0.521-0.521-1.365-0.521-1.886 0s-0.521 1.365 0 1.886l2.667 2.667c0.521 0.521 1.365 0.521 1.886 0l8-8c0.521-0.521 0.521-1.365 0-1.886s-1.365-0.521-1.886 0z"></path>
    </symbol>
    <symbol id="icon-tag" viewBox="0 0 32 32">
      <path d="M14.057 2.667c1.052 0 2.061 0.418 2.804 1.162l11.31 11.31c1.549 1.549 1.549 4.060 0 5.609l-7.424 7.424c-1.549 1.549-4.060 1.549-5.609 0l-11.31-11.31c-0.744-0.744-1.162-1.753-1.162-2.804v-7.424c0-2.19 1.776-3.966 3.966-3.966h7.424zM14.057 5.333h-7.424c-0.718 0-1.299 0.582-1.299 1.299v7.424c0 0.345 0.137 0.675 0.381 0.919l11.31 11.31c0.507 0.507 1.33 0.507 1.837 0l7.424-7.424c0.507-0.507 0.507-1.33 0-1.837l-11.31-11.31c-0.244-0.244-0.574-0.381-0.919-0.381zM10.667 8c1.473 0 2.667 1.194 2.667 2.667s-1.194 2.667-2.667 2.667c-1.473 0-2.667-1.194-2.667-2.667s1.194-2.667 2.667-2.667z"></path>
    </symbol>
    <symbol id="icon-user" viewBox="0 0 32 32">
      <path d="M9.333 21.333h13.333c3.682 0 6.667 2.985 6.667 6.667 0 0.736-0.597 1.333-1.333 1.333-0.684 0-1.247-0.515-1.324-1.178l-0.016-0.391c-0.117-2.022-1.736-3.641-3.758-3.758l-0.235-0.007h-13.333c-2.209 0-4 1.791-4 4 0 0.736-0.597 1.333-1.333 1.333s-1.333-0.597-1.333-1.333c0-3.585 2.83-6.509 6.377-6.661l0.289-0.006zM16 2.667c4.418 0 8 3.582 8 8s-3.582 8-8 8c-4.418 0-8-3.582-8-8s3.582-8 8-8zM16 5.333c-2.946 0-5.333 2.388-5.333 5.333s2.388 5.333 5.333 5.333c2.945 0 5.333-2.388 5.333-5.333s-2.388-5.333-5.333-5.333z"></path>
    </symbol>
    <symbol id="icon-visibility" viewBox="0 0 32 32">
      <path d="M16 5.333c4.784 0 9.007 3.243 12.682 9.525l0.275 0.477 0.377 0.665-0.652 1.142c-3.675 6.281-7.898 9.525-12.682 9.525s-9.007-3.243-12.682-9.525l-0.275-0.477-0.377-0.665 0.377-0.665c3.738-6.594 8.053-10.001 12.956-10.001zM16 8c-3.604 0-7.029 2.554-10.26 8 3.231 5.446 6.655 8 10.26 8 3.506 0 6.839-2.413 9.983-7.54l0.277-0.459-0.277-0.46c-3.149-5.13-6.481-7.54-9.982-7.54zM16 12c2.209 0 4 1.791 4 4s-1.791 4-4 4c-2.209 0-4-1.791-4-4s1.791-4 4-4z"></path>
    </symbol>
    <symbol id="icon-visibility-off" viewBox="0 0 32 32">
      <path d="M7.515 7.42l6.628 6.627c0.48-0.464 1.135-0.749 1.857-0.749 1.473 0 2.667 1.189 2.667 2.655 0 0.723-0.291 1.379-0.762 1.858l6.58 6.58c0.521 0.521 0.521 1.365 0 1.886s-1.365 0.521-1.886 0l-1.2-1.199c-1.713 0.992-3.513 1.494-5.4 1.494-4.781 0-9.002-3.225-12.675-9.471l-0.281-0.486-0.377-0.662 0.377-0.662c1.122-1.97 2.296-3.655 3.522-5.047l-0.936-0.937c-0.521-0.521-0.521-1.365 0-1.886s1.365-0.521 1.886 0zM6.061 15.425l-0.321 0.527 0.277 0.458c3.149 5.107 6.481 7.507 9.982 7.507 1.164 0 2.308-0.265 3.433-0.805l-5.038-5.039c-0.201-0.151-0.381-0.331-0.532-0.532l-5.413-5.416c-0.808 0.935-1.604 2.034-2.389 3.3zM16 5.333c4.781 0 9.002 3.225 12.675 9.471l0.281 0.486 0.377 0.662-0.652 1.137c-1.025 1.745-2.093 3.254-3.204 4.523l-1.883-1.883c0.903-1.053 1.791-2.309 2.664-3.777-3.231-5.422-6.656-7.965-10.26-7.965-1.142 0-2.265 0.255-3.371 0.776l-1.97-1.97c1.696-0.97 3.476-1.461 5.341-1.461z"></path>
    </symbol>
    <symbol id="icon-plitka" viewBox="0 0 32 32">
      <path d="M5.333 2.667h5.333c1.473 0 2.667 1.194 2.667 2.667v5.333c0 1.473-1.194 2.667-2.667 2.667h-5.333c-1.473 0-2.667-1.194-2.667-2.667v-5.333c0-1.473 1.194-2.667 2.667-2.667z"></path>
      <path d="M5.333 18.667h5.333c1.473 0 2.667 1.194 2.667 2.667v5.333c0 1.473-1.194 2.667-2.667 2.667h-5.333c-1.473 0-2.667-1.194-2.667-2.667v-5.333c0-1.473 1.194-2.667 2.667-2.667z"></path>
      <path d="M21.333 2.667h5.333c1.473 0 2.667 1.194 2.667 2.667v5.333c0 1.473-1.194 2.667-2.667 2.667h-5.333c-1.473 0-2.667-1.194-2.667-2.667v-5.333c0-1.473 1.194-2.667 2.667-2.667z"></path>
      <path d="M21.333 18.667h5.333c1.473 0 2.667 1.194 2.667 2.667v5.333c0 1.473-1.194 2.667-2.667 2.667h-5.333c-1.473 0-2.667-1.194-2.667-2.667v-5.333c0-1.473 1.194-2.667 2.667-2.667z"></path>
    </symbol>
    <symbol id="icon-rows" viewBox="0 0 32 32">
      <path d="M4.667 4h22.667c1.105 0 2 0.895 2 2s-0.895 2-2 2h-22.667c-1.105 0-2-0.895-2-2s0.895-2 2-2z"></path>
      <path d="M4.667 10.667h22.667c1.105 0 2 0.895 2 2s-0.895 2-2 2h-22.667c-1.105 0-2-0.895-2-2s0.895-2 2-2z"></path>
      <path d="M4.667 17.333h22.667c1.105 0 2 0.895 2 2s-0.895 2-2 2h-22.667c-1.105 0-2-0.895-2-2s0.895-2 2-2z"></path>
      <path d="M4.667 24h22.667c1.105 0 2 0.895 2 2s-0.895 2-2 2h-22.667c-1.105 0-2-0.895-2-2s0.895-2 2-2z"></path>
    </symbol>
    <symbol id="icon-exit" viewBox="0 0 16 16">
      <path d="M2 4.66699C2 3.56242 2.89543 2.66699 4 2.66699H9.04452C10.1491 2.66699 11.0445 3.56242 11.0445 4.66699V5.23021C11.0445 5.5984 10.746 5.89688 10.3779 5.89688C10.0097 5.89688 9.71119 5.5984 9.71119 5.23021V4.66699C9.71119 4.2988 9.41271 4.00033 9.04452 4.00033H4C3.63181 4.00033 3.33333 4.2988 3.33333 4.66699V12.0003C3.33333 12.3685 3.63181 12.667 4 12.667H9.04452C9.41271 12.667 9.71119 12.3685 9.71119 12.0003V11.5664C9.71119 11.1982 10.0097 10.8997 10.3779 10.8997C10.746 10.8997 11.0445 11.1982 11.0445 11.5664V12.0003C11.0445 13.1049 10.1491 14.0003 9.04452 14.0003H4C2.89543 14.0003 2 13.1049 2 12.0003V4.66699Z"></path>
      <path d="M6.37695 8.33333C6.37695 7.96514 6.67543 7.66667 7.04362 7.66667L13.4336 7.66667L12.5722 6.80474C12.3319 6.56442 12.3134 6.18626 12.5168 5.92473L12.5722 5.86193C12.8125 5.62161 13.1907 5.60312 13.4522 5.80647L13.515 5.86193L15.515 7.86193L15.5426 7.89124L15.5794 7.93646L15.6272 8.01062L15.6628 8.08578L15.6864 8.156L15.7057 8.25502L15.7103 8.33333L15.7084 8.38349L15.6968 8.46715L15.6771 8.54143L15.6478 8.61548L15.613 8.68047L15.5684 8.7445C15.5518 8.76564 15.534 8.78576 15.515 8.80474L13.515 10.8047C13.2547 11.0651 12.8326 11.0651 12.5722 10.8047C12.3319 10.5644 12.3134 10.1863 12.5168 9.92473L12.5722 9.86193L13.4336 9L7.04362 9C6.67543 9 6.37695 8.70152 6.37695 8.33333Z"></path>
    </symbol>
    <symbol id="icon-chevron-top-lg" viewBox="0 0 36 19">
      <path d="M3.27871 18.26C2.73894 18.7918 1.87173 18.7918 1.33593 18.26C0.800128 17.7281 0.798144 16.8689 1.33593 16.337L17.029 0.798777C17.5648 0.266944 18.432 0.266944 18.9718 0.798777L34.6648 16.337C35.2006 16.8689 35.2006 17.7281 34.6648 18.26C34.127 18.7918 33.2578 18.7918 32.724 18.26L17.9994 4.089L3.27871 18.26Z"/>
    </symbol>

  </defs>
</svg>
