<svg width="32" height="32" fill="none" xmlns="http://www.w3.org/2000/svg"><path fill-rule="evenodd" clip-rule="evenodd" d="M22.753 18.738c-.376.833-.556 1.205-1.04 1.941-.675 1.028-1.627 2.307-2.806 2.318-1.048.01-1.317-.681-2.74-.674-1.421.008-1.718.687-2.767.677-1.178-.011-2.08-1.167-2.756-2.194-1.888-2.874-2.086-6.247-.921-8.04.828-1.273 2.133-2.02 3.36-2.02 1.25 0 2.037.686 3.07.686 1.003 0 1.614-.686 3.058-.686 1.093 0 2.25.595 3.075 1.622-2.702 1.48-2.263 5.34.467 6.37zm-4.638-9.14c.525-.674.924-1.626.78-2.598-.859.06-1.862.605-2.447 1.316-.532.645-.97 1.603-.8 2.534.936.029 1.905-.53 2.467-1.252z" fill="#fff"/></svg>