<svg width="16" height="16" fill="none" xmlns="http://www.w3.org/2000/svg"><path d="M5.94.148s.568-.13.778-.148c0 0 1.427 1.844.73 8.802 0 0 .004.047-.045.06 0 0-.026.012-.058-.02-.452-.655-2.555-3.77-2.982-5.667 0 0-.089-.297-.106-.693v-.257a2.25 2.25 0 01.1-.584S4.659.479 5.94.148zm2.342 8.659C7.585 1.845 9.018 0 9.018 0c.393.055.762.149.762.149 1.282.312 1.599 1.492 1.599 1.492.223.62-.008 1.534-.008 1.534-.426 1.889-2.517 4.988-2.98 5.66 0 0-.025.044-.071.026 0 0-.033-.01-.038-.054zM1.128 4.474c.06-1.227 1.28-2.385 1.28-2.385s2.53 3.062 4.379 7.1v.002l.002.004v.03c-.005.015-.016.023-.016.023-.02.026-.055.015-.064.011-.675-.335-3.58-1.811-4.78-2.98 0 0-.745-.586-.798-1.576L1.13 4.66v-.186zm7.827 4.697c1.848-4.03 4.37-7.082 4.37-7.082s1.363 1.253 1.275 2.607c-.04.975-.795 1.583-.795 1.583-1.195 1.164-4.077 2.63-4.77 2.974a.036.036 0 01-.015.006h-.026c-.014-.003-.025-.01-.025-.01-.035-.031-.014-.078-.014-.078zm.403.567c2.125-1.434 6.236-3.64 6.236-3.64.1.304.138.596.14.86v.028a2.89 2.89 0 01-.247 1.17c-.532 1.164-1.557 1.49-1.557 1.49-.46.176-.833.191-.833.191-.072.014-2.953.01-3.714.01-.03 0-.05-.038-.05-.038-.013-.045.025-.07.025-.07zM.269 8.201a2.852 2.852 0 01-.13-2.091s4.116 2.2 6.24 3.633c0 0 .017.014.023.033v.03a.041.041 0 01-.005.01s-.017.031-.05.032c-.75.003-3.555.015-3.627.002 0 0-.463-.013-.925-.203 0 0-1.002-.336-1.526-1.445zm1.157 2.171l4.836-.17v.003s.05 0 .062.043c0 0 .013.027-.024.06l.002.002c-.475.338-1.913 1.342-2.548 1.5-.92.224-1.804-.503-2.328-1.438zm8.038-.164v-.002l4.843.169c-.717 1.232-1.506 1.465-1.96 1.48h-.102a1.05 1.05 0 01-.274-.04c-.677-.191-2.08-1.172-2.543-1.504-.029-.022-.018-.066-.018-.066.012-.032.054-.037.054-.037zM4.83 14.844v-1.495h.53v1.473c0 .749-.412 1.178-1.13 1.178-.712 0-1.12-.421-1.12-1.156V13.35h.53v1.476c0 .436.212.67.597.67.383 0 .594-.228.594-.652z" fill="#fff"/><path fill-rule="evenodd" clip-rule="evenodd" d="M5.63 15.96l1.15-2.612h.463l.01.016 1.14 2.595h-.555l-.234-.543H6.408l-.016.037-.222.506h-.54zm1.752-1.076l-.378-.875-.374.875-.025.06h.802l-.026-.06h.001z" fill="#fff"/><path d="M9.337 15.145l.593-1.796h.432l.594 1.796.578-1.795h.55l-.909 2.61h-.442l-.594-1.714-.594 1.715h-.439l-.91-2.611h.564l.577 1.795zm5.778.812v-2.609h.523v2.609h-.523zM.119 15.96v-2.61h.53v1.053h1.196V13.35h.53v2.612h-.53V14.9H.65v1.06H.12zm12.391-.001V13.35h1.923v.476h-1.4v.535h.965v.475h-.964v.647h1.45v.476H12.51z" fill="#fff"/></svg>