<svg width="64" height="64" fill="none" xmlns="http://www.w3.org/2000/svg"><g clip-path="url(#clip0)"><path d="M38.194 14.451H22.71v2.065h15.483v-2.064zm2.064 4.129H22.71v2.065h17.548v-2.064zm-21.015 6.987l-1.324-1.586-5.468 4.558-1.398-1.398-1.46 1.46 2.73 2.731 6.92-5.765zm25.144-.793H22.71v2.065h21.677v-2.065zm-17.548 4.129h-4.13v2.065h4.13v-2.065zm17.548 0H28.903v2.065h15.484v-2.065zM19.243 35.89l-1.324-1.586-5.468 4.557-1.398-1.397-1.46 1.46 2.73 2.73 6.92-5.765zm25.144-.793H22.71v2.064h21.677v-2.064zm-6.193 4.129H22.71v2.064h15.483v-2.064zm6.193 0h-4.129v2.064h4.13v-2.064zm0-24.775h-4.129v2.065h4.13v-2.064z" fill="#414042"/><path d="M60.904 47.484h-8.258V5.16A5.167 5.167 0 0047.485 0H5.162A5.167 5.167 0 00.001 5.161a5.167 5.167 0 005.161 5.162V64h43.355v-6.194h4.129v-4.129h8.258A3.1 3.1 0 0064 50.58a3.1 3.1 0 00-3.096-3.096zM50.58 5.16v42.323h-2.064V8.258h-1.033a3.1 3.1 0 01-3.096-3.097 3.1 3.1 0 013.096-3.097 3.1 3.1 0 013.097 3.097zm-48.516 0a3.1 3.1 0 013.097-3.096h38.22a5.107 5.107 0 00-1.059 3.096c0 1.167.404 2.232 1.06 3.097H5.162A3.1 3.1 0 012.064 5.16zm5.162 56.774V10.322h39.226v37.162H17.381l-9.29 3.097 9.29 3.096h29.07v8.258H7.227zm7.393-11.354l1.897-.633v1.264l-1.897-.631zm35.961 5.16h-2.064v-2.064h2.064v2.065zm2.065-4.128H18.582v-2.065h34.064v2.065zm4.129 0H54.71v-2.065h2.065v2.065zm4.129 0h-2.065v-2.065h2.065a1.033 1.033 0 010 2.065z" fill="#414042"/><path d="M14.5 24a6.5 6.5 0 100-13 6.5 6.5 0 000 13z" fill="#709F24"/><path d="M19.243 15.244l-1.324-1.585-5.468 4.557-1.398-1.398-1.46 1.46 2.73 2.732 6.92-5.766z" fill="#414042"/></g><defs><clipPath id="clip0"><path fill="#fff" d="M0 0h64v64H0z"/></clipPath></defs></svg>