<svg width="64" height="64" fill="none" xmlns="http://www.w3.org/2000/svg"><path d="M37.678 51.613H2.58v-41.29h35.096v4.129h2.065V3.097A3.1 3.1 0 0036.645 0H3.613A3.1 3.1 0 00.516 3.097v57.806A3.1 3.1 0 003.613 64h33.032a3.1 3.1 0 003.097-3.097V37.161h-2.065v14.452zM3.613 2.065h33.032c.57 0 1.032.462 1.032 1.032v5.161H2.581V3.097c0-.57.462-1.032 1.032-1.032zm33.032 59.87H3.613c-.57 0-1.032-.462-1.032-1.032v-7.226h35.096v7.226c0 .57-.462 1.032-1.032 1.032z" fill="#414042"/><path d="M25.29 4.129h-2.064v2.065h2.065V4.129zm-4.129 0h-6.193v2.065h6.193V4.129zm3.097 53.677a4.133 4.133 0 00-4.129-4.129A4.133 4.133 0 0016 57.807a4.133 4.133 0 004.13 4.128 4.133 4.133 0 004.128-4.129zm-4.129 2.065a2.067 2.067 0 01-2.064-2.065c0-1.138.926-2.064 2.064-2.064 1.139 0 2.065.926 2.065 2.064a2.066 2.066 0 01-2.065 2.065zm-1.032-25.806V32h-8.774a3.617 3.617 0 00-3.613 3.613 3.617 3.617 0 003.613 3.613h8.774V37.16h-5.162v-3.097h5.162zM11.87 37.16h-1.548a1.55 1.55 0 01-1.549-1.548 1.55 1.55 0 011.549-1.548h1.548v3.096zm7.227-14.45h-2.065v5.161H6.71v2.065h12.387V22.71zm0-9.29h-2.065v5.16H6.71v2.065h12.387V13.42zm-8.774 29.935h.516V41.29h-.516a3.617 3.617 0 00-3.613 3.613 3.617 3.617 0 003.613 3.613h5.16a3.617 3.617 0 003.614-3.613 3.617 3.617 0 00-3.613-3.613h-.516v2.065h.516a1.55 1.55 0 011.548 1.548 1.55 1.55 0 01-1.548 1.548h-5.161a1.55 1.55 0 01-1.549-1.548 1.55 1.55 0 011.549-1.548z" fill="#414042"/><path d="M51.097 13.42H38.71c-6.841 0-12.387 5.546-12.387 12.386 0 4.998 2.964 9.292 7.225 11.25v6.299l7.742-5.162h9.806c6.841 0 12.388-5.546 12.388-12.387 0-6.84-5.547-12.387-12.387-12.387z" fill="#2CA6A4"/></svg>