<svg width="174" height="29" fill="none" xmlns="http://www.w3.org/2000/svg"><path d="M1.537 13.292H9.98c1.557 0 2.803.345 3.737 1.036.934.69 1.384 1.622 1.384 2.796 0 1.623-.796 2.762-2.422 3.452 2.007.622 3.01 1.9 3.01 3.867 0 1.312-.519 2.313-1.522 3.073-1.038.725-2.422 1.105-4.222 1.105H1.537V13.29zm4.325 6.18h3.08c.588 0 1.038-.138 1.35-.415.31-.276.484-.656.484-1.104 0-.415-.139-.725-.45-1.002-.277-.276-.727-.414-1.35-.414H5.862v2.935zm0 5.765h3.46c1.315 0 1.973-.518 1.973-1.553 0-1.002-.692-1.485-2.111-1.485H5.862v3.038zM24.306 29c-2.319 0-4.222-.76-5.745-2.313-1.522-1.553-2.283-3.452-2.283-5.662s.76-4.108 2.284-5.662c1.522-1.553 3.46-2.347 5.778-2.347 2.457 0 4.499.897 6.125 2.693l-2.56 2.589c-1.073-1.001-2.284-1.52-3.6-1.52-1.072 0-1.972.415-2.664 1.244-.726.828-1.072 1.83-1.072 3.003 0 1.209.346 2.21 1.072 3.038.727.794 1.661 1.209 2.838 1.209 1.21 0 2.387-.553 3.53-1.623l2.56 2.59c-.83.897-1.73 1.622-2.7 2.07-.933.45-2.145.691-3.563.691zm14.671 0c-2.352 0-4.256-.725-5.778-2.21-1.523-1.484-2.284-3.417-2.284-5.765 0-2.244.727-4.108 2.145-5.662 1.419-1.553 3.253-2.313 5.468-2.313 2.422 0 4.29.794 5.57 2.417 1.281 1.623 1.939 3.59 1.939 5.938 0 .242-.035.621-.07 1.14H35.24c.208.966.658 1.725 1.315 2.243.658.518 1.454.76 2.457.76 1.35 0 2.595-.518 3.737-1.554l2.492 2.21C43.718 28.068 41.607 29 38.977 29zm-3.771-9.218h6.574c-.138-1-.484-1.795-1.038-2.382-.553-.587-1.28-.897-2.18-.897-.865 0-1.626.276-2.18.863-.623.621-1.003 1.38-1.176 2.416zm34.43 6.905C68.044 28.241 66.037 29 63.684 29c-2.387 0-4.36-.76-5.917-2.313-1.557-1.519-2.353-3.418-2.353-5.696 0-2.244.796-4.109 2.388-5.662 1.592-1.554 3.599-2.313 5.952-2.313 2.387 0 4.36.76 5.917 2.313 1.591 1.553 2.387 3.418 2.387 5.696 0 2.21-.83 4.109-2.422 5.662zm-5.882-1.45c1.21 0 2.18-.414 2.906-1.208.727-.829 1.108-1.83 1.108-3.038 0-1.174-.381-2.14-1.142-3.004-.762-.828-1.73-1.243-2.907-1.243-1.211 0-2.18.415-2.907 1.209-.726.794-1.107 1.83-1.107 3.003 0 1.174.38 2.175 1.142 3.004.727.863 1.695 1.277 2.907 1.277zm21.73-11.945v3.728h-4.567v11.635h-4.43V17.02H71.92v-3.728h13.564zm2.457 0h12.388v15.363h-4.36V17.02h-3.91c0 2.037-.07 3.73-.242 5.145a21.14 21.14 0 01-.623 3.417c-.277.863-.657 1.554-1.107 2.037a3.57 3.57 0 01-1.558.967c-.553.173-1.245.242-2.076.242-.796 0-1.522-.104-2.214-.242l.276-3.521c.347.069.658.069.9.069.45 0 .83-.104 1.107-.346.277-.207.52-.725.762-1.484.242-.76.415-1.968.484-3.59.07-1.623.173-3.73.173-6.422zm28.86 0v15.363h-4.222v-8.942l-5.986 8.942h-4.118V13.292h4.221v8.976l5.987-8.976h4.118zm6.159 0v4.799c0 1.691.692 2.52 2.111 2.52a6.256 6.256 0 002.976-.76v-6.56h4.429v15.364h-4.395v-5.351c-1.384.656-2.768 1.001-4.187 1.001-1.592 0-2.872-.449-3.875-1.312-1.004-.863-1.488-2.071-1.488-3.66v-6.041h4.429zm25.745 0v15.363h-4.36v-5.869h-5.364v5.869h-4.36V13.292h4.36v5.903h5.364v-5.903h4.36zm15.675 13.395c-1.592 1.554-3.599 2.313-5.952 2.313-2.353 0-4.36-.76-5.917-2.313-1.557-1.519-2.353-3.418-2.353-5.696 0-2.244.796-4.109 2.388-5.662 1.592-1.554 3.599-2.313 5.952-2.313 2.353 0 4.36.76 5.917 2.313 1.592 1.553 2.387 3.418 2.387 5.696-.034 2.21-.83 4.109-2.422 5.662zm-5.917-1.45c1.211 0 2.18-.414 2.907-1.208.726-.829 1.072-1.83 1.072-3.038 0-1.174-.38-2.14-1.142-3.004-.761-.828-1.73-1.243-2.906-1.243-1.211 0-2.18.415-2.907 1.209-.727.794-1.107 1.83-1.107 3.003 0 1.174.38 2.175 1.142 3.004.796.863 1.764 1.277 2.941 1.277zm11.211-3.383l-1.349-12.67v-.587h5.121v.587l-1.349 12.67h-2.423zm-1.107 6.801v-4.592h4.637v4.592h-4.637z" fill="#414F5A"/><path fill-rule="evenodd" clip-rule="evenodd" d="M32.16 10.84L38.667 0l6.54 10.84H32.161z" fill="#FECC00"/></svg>