<svg width="125" height="72" fill="none" xmlns="http://www.w3.org/2000/svg"><g clip-path="url(#clip0)"><path d="M120.915-.02H4a4 4 0 00-4 4v47.924a4 4 0 004 4h116.915a4 4 0 004-4V3.98a4 4 0 00-4-4zM3.959 71.884a3.661 3.661 0 01-1.776-.428 3.266 3.266 0 01-1.245-1.203 3.321 3.321 0 01-.447-1.706c0-.628.15-1.196.447-1.706.303-.51.719-.907 1.245-1.193a3.599 3.599 0 011.776-.438c.65 0 1.24.146 1.766.438.527.286.939.683 1.236 1.193a3.29 3.29 0 01.447 1.706 3.34 3.34 0 01-.447 1.715 3.22 3.22 0 01-1.236 1.194 3.642 3.642 0 01-1.766.428zm0-.83c.477 0 .905-.108 1.283-.326.384-.217.684-.515.901-.894a2.52 2.52 0 00.335-1.287 2.47 2.47 0 00-.335-1.277 2.34 2.34 0 00-.901-.904 2.526 2.526 0 00-1.283-.327c-.477 0-.911.11-1.302.327a2.406 2.406 0 00-.91.904 2.515 2.515 0 00-.326 1.277c0 .472.109.901.325 1.287.224.379.527.677.911.894.39.218.825.327 1.302.327zm10.678-5.77v6.526h-.93V68.9H9.97v2.909h-.93v-6.526h.93v2.806h3.737v-2.806h.93zm7.395 0v6.526h-.911v-5.715h-2.882l-.065 1.911c-.031.901-.105 1.632-.223 2.191-.112.56-.291.982-.54 1.268-.247.28-.582.42-1.003.42-.192 0-.388-.025-.586-.075l.065-.83c.1.025.198.037.298.037.266 0 .48-.105.641-.316.161-.218.282-.541.363-.97.08-.429.133-.994.158-1.697l.102-2.75h4.583zm6.386 4.894H24.96l-.716 1.632h-.957l2.947-6.526h.92l2.956 6.526h-.976l-.716-1.632zm-.325-.745l-1.404-3.198-1.403 3.198h2.807zm3.27-4.149h.92v5.034l3.85-5.034h.854v6.526h-.91v-5.025l-3.858 5.025h-.856v-6.526zm2.798-.457c-.508 0-.901-.108-1.18-.326-.273-.224-.412-.54-.418-.95h.66c.006.242.09.431.25.568.168.13.397.196.688.196.28 0 .502-.066.67-.196a.708.708 0 00.27-.569h.65c-.006.404-.149.718-.428.942-.272.224-.66.335-1.162.335zm10.581.457v6.526h-.93V68.9h-3.736v2.909h-.93v-6.526h.93v2.806h3.737v-2.806h.93zm1.677 3.58h2.5v.774h-2.5v-.774zm8.429-2.769h-3.346l.009 5.715h-.92v-6.526h4.267l-.01.811zm1.247-.811h.92v5.034l3.849-5.034h.855v6.526h-.911v-5.025L56.95 71.81h-.855v-6.526zm13.388 0v6.526h-.91v-5.715h-3.775v5.715h-.92v-6.526h5.605zm6.882 5.715v.81h-4.722v-6.525h4.592v.811h-3.663V68.1h3.263v.792h-3.263v2.107h3.793zm4.128-5.715c.843 0 1.506.202 1.989.606.483.404.725.96.725 1.669 0 .708-.242 1.265-.725 1.669-.483.404-1.147.606-1.99.606h-1.608v1.976h-.93v-6.526h2.539zm-.028 3.738c.589 0 1.038-.124 1.348-.372.31-.255.465-.619.465-1.091s-.155-.833-.465-1.081c-.31-.255-.76-.383-1.348-.383h-1.58v2.927h1.58zm10.198 2.788l-.009-4.755-2.352 3.962h-.427l-2.352-3.934v4.727h-.893v-6.526h.763l2.714 4.587 2.677-4.587h.762l.01 6.526h-.893zm7.278-1.632h-3.458l-.716 1.632h-.957l2.947-6.526h.92l2.956 6.526h-.976l-.716-1.632zm-.325-.745l-1.404-3.198-1.404 3.198h2.808zm5.808-4.149c.843 0 1.506.202 1.989.606.484.404.725.96.725 1.669 0 .708-.241 1.265-.725 1.669-.483.404-1.146.606-1.989.606h-1.608v1.976h-.93v-6.526h2.538zm-.028 3.738c.589 0 1.038-.124 1.348-.372.31-.255.465-.619.465-1.091s-.155-.833-.465-1.081c-.31-.255-.759-.383-1.348-.383h-1.58v2.927h1.58zm6.434-.083h-1.358v2.87h-.911v-6.525h.911v2.834h1.376l2.045-2.834h.995l-2.324 3.16L113 71.81h-1.06l-2.11-2.871zm8.975 2.06v.81h-4.722v-6.525h4.592v.811h-3.663V68.1h3.263v.792h-3.263v2.107h3.793zm6.061-4.904h-2.231v5.715h-.911v-5.715h-2.222v-.81h5.364v.81z" fill="#FC152E"/><path d="M13.594 40.421v-25.03h9.07c2.04 0 3.825.33 5.362.989 1.535.658 2.819 1.55 3.849 2.68 1.03 1.128 1.804 2.449 2.32 3.966.514 1.515.773 3.132.773 4.848 0 1.904-.286 3.626-.86 5.165-.574 1.539-1.4 2.856-2.478 3.949-1.078 1.093-2.374 1.94-3.885 2.539-1.51.599-3.206.898-5.079.898h-9.072v-.004zm16.487-12.55c0-1.197-.164-2.302-.492-3.314-.329-1.01-.81-1.88-1.442-2.608a6.414 6.414 0 00-2.338-1.692c-.926-.399-1.974-.599-3.147-.599h-4.219v16.499h4.22c1.194 0 2.254-.213 3.181-.635a6.514 6.514 0 002.32-1.745c.622-.74 1.096-1.617 1.425-2.627.328-1.011.492-2.104.492-3.278zm52.379 4.654a5.431 5.431 0 01-1.125 1.743 6.583 6.583 0 01-3.27 1.853 7.836 7.836 0 01-1.758.212c-1.078 0-2.069-.234-2.972-.704a7.484 7.484 0 01-2.32-1.868 8.513 8.513 0 01-1.494-2.698 9.719 9.719 0 01-.45-4.401c.073-.587.2-1.174.38-1.767a8.48 8.48 0 011.352-2.68 6.986 6.986 0 012.25-1.92 6.123 6.123 0 012.31-.696 7.998 7.998 0 012.595.147c.586.128 1.15.335 1.688.618.54.282 1.042.663 1.511 1.145.469.482.866 1.077 1.195 1.78l3.726-2.574c-.82-1.622-2.069-2.937-3.746-3.949-1.675-1.011-3.661-1.515-5.957-1.515-1.947 0-3.68.365-5.204 1.093-1.523.728-2.813 1.68-3.867 2.856a12.291 12.291 0 00-2.409 4 13.117 13.117 0 00-.785 3.525 12.63 12.63 0 00.366 4.187c.129.51.293 1.018.49 1.524a13.693 13.693 0 002.496 4.125 12.749 12.749 0 003.816 2.946c1.477.752 3.105 1.128 4.887 1.128 1.009 0 2.04-.128 3.093-.388a12.673 12.673 0 002.97-1.129c.925-.494 1.757-1.1 2.495-1.817a7.558 7.558 0 001.707-2.483l-3.97-2.293z" fill="#fff"/><path d="M13.594 22.28v-2.62h4.85v2.62h-4.85z" fill="url(#paint0_linear)"/><path d="M21.058 36.155h-2.613v4.266h2.613v-4.266z" fill="url(#paint1_linear)"/><path d="M55.158 15.374L47.3 27.31l-.077.117-3.422 5.193-.002.004v-17.25h-5.013v25.12H43.8l.002-.003 3.498-5.3 7.858-11.909v17.214h5.018V15.374h-5.018z" fill="#fff"/><path d="M60.176 15.382v6.343l-5.018 7.86V23.28l5.018-7.898z" fill="url(#paint2_linear)"/><path d="M47.298 27.31v7.879l-3.498 5.3V32.62l3.421-5.193.077-.117z" fill="url(#paint3_linear)"/><path d="M105.935 15.374L98.077 27.31l-.077.117-3.421 5.193-.002.004v-17.25h-5.014v25.12h5.014l.002-.003 3.499-5.3 7.857-11.909v17.214h5.018V15.374h-5.018z" fill="#fff"/><path d="M110.953 15.382v6.343l-5.018 7.86V23.28l5.018-7.898z" fill="url(#paint4_linear)"/><path d="M98.077 27.31v7.879l-3.498 5.3V32.62L98 27.427l.077-.117z" fill="url(#paint5_linear)"/></g><defs><linearGradient id="paint0_linear" x1="16.018" y1="19.659" x2="16.018" y2="22.28" gradientUnits="userSpaceOnUse"><stop stop-color="#CCC"/><stop offset="1" stop-color="#fff" stop-opacity="0"/></linearGradient><linearGradient id="paint1_linear" x1="18.445" y1="38.288" x2="21.058" y2="38.288" gradientUnits="userSpaceOnUse"><stop stop-color="#CCC"/><stop offset="1" stop-color="#fff" stop-opacity="0"/></linearGradient><linearGradient id="paint2_linear" x1="59.221" y1="23.384" x2="56.124" y2="21.601" gradientUnits="userSpaceOnUse"><stop stop-color="#fff" stop-opacity="0"/><stop offset="1" stop-color="#CCC"/></linearGradient><linearGradient id="paint3_linear" x1="43.8" y1="33.899" x2="47.299" y2="33.899" gradientUnits="userSpaceOnUse"><stop stop-color="#CCC"/><stop offset="1" stop-color="#fff" stop-opacity="0"/></linearGradient><linearGradient id="paint4_linear" x1="109.999" y1="23.384" x2="106.902" y2="21.601" gradientUnits="userSpaceOnUse"><stop stop-color="#fff" stop-opacity="0"/><stop offset="1" stop-color="#CCC"/></linearGradient><linearGradient id="paint5_linear" x1="94.579" y1="33.899" x2="98.078" y2="33.899" gradientUnits="userSpaceOnUse"><stop stop-color="#CCC"/><stop offset="1" stop-color="#fff" stop-opacity="0"/></linearGradient><clipPath id="clip0"><path fill="#fff" d="M0 0h125v72H0z"/></clipPath></defs></svg>