<svg width="16" height="16" fill="none" xmlns="http://www.w3.org/2000/svg"><path d="M10.41 7.997a2.407 2.407 0 11-4.816 0 2.407 2.407 0 014.815 0zM8.002 0C3.59 0 0 3.59 0 8.003 0 12.415 3.59 16 8.003 16a7.952 7.952 0 004.507-1.394l.025-.015-1.078-1.253-.02.01a6.36 6.36 0 01-3.434 1.007 6.366 6.366 0 01-6.358-6.358A6.366 6.366 0 018.003 1.64a6.366 6.366 0 016.357 6.357c0 .457-.05.913-.15 1.37-.2.827-.777 1.077-1.214 1.042-.436-.035-.947-.346-.952-1.108V7.997a4.05 4.05 0 00-4.047-4.046 4.05 4.05 0 00-4.046 4.046 4.05 4.05 0 004.046 4.047 4.032 4.032 0 002.869-1.194 2.603 2.603 0 002 1.194 2.72 2.72 0 001.84-.537c.482-.366.838-.892 1.033-1.524.03-.1.09-.336.09-.336v-.01A7.091 7.091 0 0016 7.997C16.005 3.59 12.415 0 8.003 0z" fill="#fff"/></svg>