<svg width="37" height="22" fill="none" xmlns="http://www.w3.org/2000/svg"><g clip-path="url(#clip0)"><path d="M23.467 2.353h-9.734v17.295h9.734V2.353z" fill="#FF5F00"/><path d="M14.351 11c0-3.514 1.669-6.63 4.234-8.647A11.135 11.135 0 0011.725 0C5.575 0 .6 4.92.6 11c0 6.081 4.975 11.001 11.125 11.001 2.595 0 4.975-.886 6.86-2.353a10.94 10.94 0 01-4.234-8.647z" fill="#EB001B"/><path d="M36.6 11c0 6.081-4.975 11.001-11.124 11.001-2.596 0-4.975-.886-6.86-2.353a10.894 10.894 0 004.233-8.647c0-3.515-1.669-6.631-4.233-8.648A11.135 11.135 0 0125.476 0C31.626 0 36.6 4.95 36.6 11z" fill="#F79E1B"/></g><defs><clipPath id="clip0"><path fill="#fff" transform="translate(.6)" d="M0 0h36v22H0z"/></clipPath></defs></svg>