<svg width="63" height="18" fill="none" xmlns="http://www.w3.org/2000/svg"><g clip-path="url(#clip0)" fill-rule="evenodd" clip-rule="evenodd"><path d="M6.296.803c.55-.004 2.186-.15 2.879 2.187.467 1.575 1.21 4.155 2.23 7.74h.415c1.095-3.78 1.846-6.36 2.255-7.74.7-2.362 2.45-2.187 3.15-2.187h5.4v16.8h-5.504v-9.9h-.369l-3.068 9.9H9.541L6.474 7.695h-.37v9.908H.6V.803h5.696zm24.234 0v9.908h.44l3.732-8.148C35.426.943 36.97.803 36.97.803h5.326v16.8h-5.62V7.695h-.438l-3.66 8.147c-.724 1.614-2.342 1.76-2.342 1.76H24.91V.803h5.619zm31.19 7.983c-.783 2.222-3.245 3.812-5.97 3.812h-5.893v5.005h-5.344V8.786H61.72z" fill="#0F754E"/><path d="M56.007.803H44.233c.28 3.74 3.5 6.942 6.835 6.942h11.024c.636-3.109-1.554-6.942-6.085-6.942z" fill="url(#paint0_linear)"/></g><defs><linearGradient id="paint0_linear" x1="62.2" y1="5.17" x2="44.233" y2="5.17" gradientUnits="userSpaceOnUse"><stop stop-color="#1F5CD7"/><stop offset="1" stop-color="#02AEFF"/></linearGradient><clipPath id="clip0"><path fill="#fff" transform="translate(.6 .8)" d="M0 0h61.6v16.8H0z"/></clipPath></defs></svg>