<svg width="12" height="20" fill="none" xmlns="http://www.w3.org/2000/svg"><path d="M8.185 14.535a10.328 10.328 0 003.116-1.243c.722-.465.917-1.402.433-2.1-.463-.667-1.389-.869-2.106-.459a7.043 7.043 0 01-7.222 0c-.73-.446-1.7-.234-2.164.468v.003a1.475 1.475 0 00.491 2.084l.003.003c.957.58 2.01 1 3.11 1.24L.849 17.42a1.457 1.457 0 00-.024 2.113l.027.026c.298.295.7.442 1.103.442.402 0 .804-.147 1.101-.442l2.963-2.836 2.944 2.84a1.62 1.62 0 002.222-.04 1.471 1.471 0 000-2.1l-3-2.887zm-2.168-4.212c2.962-.003 5.359-2.312 5.362-5.16C11.38 2.318 8.972 0 6.017 0S.655 2.318.655 5.163c.003 2.852 2.404 5.16 5.362 5.163v-.003zm0-7.295c1.224 0 2.218.957 2.218 2.135 0 1.182-.994 2.136-2.218 2.14-1.224-.004-2.218-.958-2.22-2.14.002-1.178.996-2.135 2.22-2.138v.003z" fill="#fff"/></svg>