<svg width="17" height="14" fill="none" xmlns="http://www.w3.org/2000/svg"><path d="M14.517 4.513c0-.133-.002-.27-.009-.406a6.39 6.39 0 001.572-1.632 6.331 6.331 0 01-1.81.498 3.166 3.166 0 001.385-1.745 6.329 6.329 0 01-2 .765 3.152 3.152 0 00-5.37 2.875A8.96 8.96 0 011.79 1.573a3.136 3.136 0 00-.427 1.585 3.15 3.15 0 001.402 2.625 3.16 3.16 0 01-1.428-.395v.039c0 1.526 1.086 2.8 2.528 3.09a3.166 3.166 0 01-1.422.055 3.158 3.158 0 002.944 2.186 6.311 6.311 0 01-3.914 1.349c-.255 0-.506-.012-.751-.042a8.892 8.892 0 004.83 1.417c5.796 0 8.965-4.802 8.965-8.969z" fill="#fff"/></svg>