<svg width="58" height="19" fill="none" xmlns="http://www.w3.org/2000/svg"><g clip-path="url(#clip0)"><path d="M29.79 5.859c-.034 2.553 2.308 3.978 4.073 4.825 1.812.869 2.421 1.426 2.414 2.203-.014 1.19-1.446 1.714-2.786 1.735-2.339.036-3.698-.622-4.78-1.12l-.841 3.884c1.084.492 3.092.922 5.174.94 4.888 0 8.087-2.377 8.104-6.063.019-4.678-6.568-4.937-6.523-7.028.016-.634.63-1.31 1.976-1.482.666-.087 2.504-.154 4.588.792l.818-3.758C40.887.385 39.446 0 37.652 0c-4.6 0-7.837 2.41-7.863 5.859zM49.868.324a2.12 2.12 0 00-1.98 1.3l-6.983 16.427h4.884l.972-2.647h5.97l.563 2.647H57.6L53.843.324H49.87zm.683 4.789l1.41 6.656H48.1l2.45-6.656zM23.867.324l-3.85 17.727h4.654L28.52.324h-4.653zm-6.886 0l-4.844 12.065-1.96-10.259C9.947.985 9.04.324 8.031.324H.11L0 .839c1.626.347 3.473.908 4.592 1.508.685.366.88.687 1.105 1.557L9.41 18.051h4.92L21.868.324h-4.887z" fill="url(#paint0_linear)"/></g><defs><linearGradient id="paint0_linear" x1="26.481" y1="18.694" x2="27.004" y2="-.128" gradientUnits="userSpaceOnUse"><stop stop-color="#222357"/><stop offset="1" stop-color="#254AA5"/></linearGradient><clipPath id="clip0"><path fill="#fff" d="M0 0h57.6v18.4H0z"/></clipPath></defs></svg>