<svg width="19" height="11" fill="none" xmlns="http://www.w3.org/2000/svg"><path d="M17.917 9.097c-.349-.649-1.764-2.045-1.764-2.045-1.305-1.222-1.305-1.304-.076-2.914l.007-.01.598-.788C18.037 1.505 18.123.9 18.05.702c-.042-.125-.263-.174-.587-.174h-2.968a.443.443 0 00-.207.049c-.082.049-.152.171-.18.22a16.202 16.202 0 01-.996 2.13C11.875 5.05 11.418 5.05 11.267 5.05a.36.36 0 01-.19-.055c-.436-.288-.417-.987-.4-1.604v-.004l.002-.17.003-.15c0-.46.015-.85.03-1.195.048-1.215.036-1.57-.514-1.702C9.927.102 9.733.053 8.983.043h-.385c-.691 0-1.388.029-1.775.222a.918.918 0 00-.331.282c.213.04.565.148.771.433.289.393.29 1.213.29 1.292.025.416.13 2.425-.433 2.738a.5.5 0 01-.232.06c-.431 0-.97-.627-1.848-2.17a16.512 16.512 0 01-.962-2C4.002.718 3.892.513 3.555.513H1.03C.748.513.49.675.615.977c.017.043 2 4.706 4.203 7.031 1.8 1.899 3.832 2.035 4.222 2.035h1.145c.212 0 .512-.218.512-.598 0-1.217.41-1.673.73-1.777a.508.508 0 01.158-.025c.423 0 .843.487 1.328 1.05l.002.002c.325.378.657.765.995 1.002.44.303.803.348.977.348h2.5c.136-.01.536-.123.653-.353.07-.139.037-.324-.105-.562l-.002-.005a.148.148 0 00-.016-.028z" fill="#fff"/></svg>